{
  "accessors": [
    {
      "bufferView": 2,
      "componentType": 5126,
      "count": 1669,
      "max": [
        0.23726190626621246,
        0.3047550916671753,
        0.425944060087204
      ],
      "min": [
        -0.23877911269664764,
        -0.3094586431980133,
        -0.4334375560283661
      ],
      "type": "VEC3"
    },
    {
      "bufferView": 2,
      "byteOffset": 20028,
      "componentType": 5126,
      "count": 1669,
      "max": [
        0.9994631409645081,
        0.9965077042579651,
        0.9992756843566895
      ],
      "min": [
        -0.9970271587371826,
        -0.9947134852409363,
        -1.0
      ],
      "type": "VEC3"
    },
    {
      "bufferView": 1,
      "componentType": 5126,
      "count": 1669,
      "max": [
        0.9915885329246521,
        0.9951465725898743
      ],
      "min": [
        0.0027475059032440186,
        0.002747476100921631
      ],
      "type": "VEC2"
    },
    {
      "bufferView": 0,
      "componentType": 5125,
      "count": 5874,
      "type": "SCALAR"
    }
  ],
  "asset": {
    "extras": {
      "author": "klrxyz (https://sketchfab.com/klrxyz)",
      "license": "CC-BY-4.0 (http://creativecommons.org/licenses/by/4.0/)",
      "source": "https://sketchfab.com/3d-models/character-card-sprite-knight-b392836577cf462fa9a27a3ebfb80e1d",
      "title": "Character Card Sprite Knight"
    },
    "generator": "Sketchfab-16.7.0",
    "version": "2.0"
  },
  "bufferViews": [
    {
      "buffer": 0,
      "byteLength": 23496,
      "name": "floatBufferViews",
      "target": 34963
    },
    {
      "buffer": 0,
      "byteLength": 13352,
      "byteOffset": 23496,
      "byteStride": 8,
      "name": "floatBufferViews",
      "target": 34962
    },
    {
      "buffer": 0,
      "byteLength": 40056,
      "byteOffset": 36848,
      "byteStride": 12,
      "name": "floatBufferViews",
      "target": 34962
    }
  ],
  "buffers": [
    {
      "byteLength": 76904,
      "uri": "scene.bin"
    }
  ],
  "images": [
    {
      "uri": "textures/SimplygonCastMaterial_baseColor.png"
    }
  ],
  "materials": [
    {
      "doubleSided": true,
      "name": "SimplygonCastMaterial",
      "pbrMetallicRoughness": {
        "baseColorTexture": {
          "index": 0
        },
        "metallicFactor": 0.0
      }
    }
  ],
  "meshes": [
    {
      "name": "ProcessedMeshNode_LOD1_SimplygonCastMaterial_0",
      "primitives": [
        {
          "attributes": {
            "NORMAL": 1,
            "POSITION": 0,
            "TEXCOORD_0": 2
          },
          "indices": 3,
          "material": 0,
          "mode": 4
        }
      ]
    }
  ],
  "nodes": [
    {
      "children": [
        1
      ],
      "matrix": [
        1.0,
        0.0,
        0.0,
        0.0,
        0.0,
        2.220446049250313e-16,
        -1.0,
        0.0,
        0.0,
        1.0,
        2.220446049250313e-16,
        0.0,
        0.0,
        0.0,
        0.0,
        1.0
      ],
      "name": "Sketchfab_model"
    },
    {
      "children": [
        2
      ],
      "matrix": [
        0.009999999776482582,
        0.0,
        0.0,
        0.0,
        0.0,
        0.0,
        0.009999999776482582,
        0.0,
        0.0,
        -0.009999999776482582,
        0.0,
        0.0,
        0.0,
        0.0,
        0.0,
        1.0
      ],
      "name": "final.fbx"
    },
    {
      "children": [
        3
      ],
      "name": "RootNode"
    },
    {
      "children": [
        4
      ],
      "matrix": [
        4.3711386728180365e-06,
        1.1102229399218618e-14,
        99.99999237060538,
        0.0,
        99.99999237060528,
        -4.3711386728180365e-06,
        -4.371138678369152e-06,
        0.0,
        4.371139011860592e-06,
        99.99999999999991,
        -1.9984014443252818e-13,
        0.0,
        0.0,
        0.0,
        0.0,
        1.0
      ],
      "name": "ProcessedMeshNode_LOD1"
    },
    {
      "mesh": 0,
      "name": "ProcessedMeshNode_LOD1_SimplygonCastMaterial_0"
    }
  ],
  "samplers": [
    {
      "magFilter": 9729,
      "minFilter": 9987,
      "wrapS": 10497,
      "wrapT": 10497
    }
  ],
  "scene": 0,
  "scenes": [
    {
      "name": "Sketchfab_Scene",
      "nodes": [
        0
      ]
    }
  ],
  "textures": [
    {
      "sampler": 0,
      "source": 0
    }
  ]
}
